<?xml version="1.0" encoding="UTF-8" standalone="no"?>
<!-- Created with Inkscape (http://www.inkscape.org/) -->

<svg
   xmlns:dc="http://purl.org/dc/elements/1.1/"
   xmlns:cc="http://creativecommons.org/ns#"
   xmlns:rdf="http://www.w3.org/1999/02/22-rdf-syntax-ns#"
   xmlns:svg="http://www.w3.org/2000/svg"
   xmlns="http://www.w3.org/2000/svg"
   xmlns:sodipodi="http://sodipodi.sourceforge.net/DTD/sodipodi-0.dtd"
   xmlns:inkscape="http://www.inkscape.org/namespaces/inkscape"
   width="124.12644mm"
   height="89.126434mm"
   viewBox="0 0 439.8181 315.80232"
   id="svg2"
   version="1.1"
   inkscape:version="0.91 r13725"
   sodipodi:docname="acredita.svg"
   inkscape:export-filename="/home/creawww/DATOS/020_NOVATERRA/Novaterra/Carrera_Popular/diseño.png"
   inkscape:export-xdpi="300"
   inkscape:export-ydpi="300">
  <sodipodi:namedview
     id="base"
     pagecolor="#ffffff"
     bordercolor="#666666"
     borderopacity="1.0"
     inkscape:pageopacity="0.0"
     inkscape:pageshadow="2"
     inkscape:zoom="0.84596859"
     inkscape:cx="525.89123"
     inkscape:cy="209.43103"
     inkscape:document-units="px"
     inkscape:current-layer="layer1"
     showgrid="false"
     inkscape:snap-bbox="true"
     inkscape:bbox-paths="true"
     inkscape:bbox-nodes="true"
     showguides="false"
     inkscape:window-width="1920"
     inkscape:window-height="1014"
     inkscape:window-x="0"
     inkscape:window-y="27"
     inkscape:window-maximized="1"
     inkscape:snap-global="true"
     inkscape:guide-bbox="true"
     inkscape:snap-bbox-edge-midpoints="true"
     inkscape:snap-page="true"
     fit-margin-top="0"
     fit-margin-left="0"
     fit-margin-right="0"
     fit-margin-bottom="0" />
  <defs
     id="defs4">
    <inkscape:path-effect
       is_visible="true"
       id="path-effect6000"
       effect="spiro" />
    <inkscape:path-effect
       effect="spiro"
       id="path-effect5919"
       is_visible="true" />
    <inkscape:path-effect
       is_visible="true"
       id="path-effect5915"
       effect="spiro" />
    <inkscape:path-effect
       effect="spiro"
       id="path-effect5911"
       is_visible="true" />
    <inkscape:path-effect
       effect="spiro"
       id="path-effect5907"
       is_visible="true" />
    <inkscape:path-effect
       is_visible="true"
       id="path-effect5903"
       effect="spiro" />
    <inkscape:path-effect
       is_visible="true"
       id="path-effect5868"
       effect="spiro" />
    <inkscape:path-effect
       is_visible="true"
       id="path-effect5864"
       effect="spiro" />
    <inkscape:path-effect
       is_visible="true"
       id="path-effect5860"
       effect="spiro" />
    <inkscape:path-effect
       is_visible="true"
       id="path-effect5856"
       effect="spiro" />
  </defs>
  <metadata
     id="metadata7">
    <rdf:RDF>
      <cc:Work
         rdf:about="">
        <dc:format>image/svg+xml</dc:format>
        <dc:type
           rdf:resource="http://purl.org/dc/dcmitype/StillImage" />
        <dc:title></dc:title>
      </cc:Work>
    </rdf:RDF>
  </metadata>
  <g
     transform="translate(-1048.9571,308.26332)"
     id="layer1"
     inkscape:groupmode="layer"
     inkscape:label="Capa 1">
    <g
       transform="translate(-36.883039,-345.80525)"
       id="g4530">
      <rect
         style="color:#000000;clip-rule:nonzero;display:inline;overflow:visible;visibility:visible;opacity:1;isolation:auto;mix-blend-mode:normal;color-interpolation:sRGB;color-interpolation-filters:linearRGB;solid-color:#000000;solid-opacity:1;fill:#ffffff;fill-opacity:1;fill-rule:nonzero;stroke:none;stroke-width:0.44800001;stroke-linecap:butt;stroke-linejoin:miter;stroke-miterlimit:4;stroke-dasharray:none;stroke-dashoffset:0;stroke-opacity:1;marker:none;color-rendering:auto;image-rendering:auto;shape-rendering:auto;text-rendering:auto;enable-background:accumulate"
         id="rect4346"
         width="354.33072"
         height="230.31496"
         x="1128.5839"
         y="80.285622" />
      <rect
         y="90.504539"
         x="1191.6239"
         height="209.87712"
         width="280.52734"
         id="rect4438"
         style="color:#000000;clip-rule:nonzero;display:inline;overflow:visible;visibility:visible;opacity:1;isolation:auto;mix-blend-mode:normal;color-interpolation:sRGB;color-interpolation-filters:linearRGB;solid-color:#000000;solid-opacity:1;fill:#786daa;fill-opacity:1;fill-rule:nonzero;stroke:#786daa;stroke-width:3.40654969;stroke-linecap:butt;stroke-linejoin:miter;stroke-miterlimit:4;stroke-dasharray:none;stroke-dashoffset:0;stroke-opacity:1;marker:none;color-rendering:auto;image-rendering:auto;shape-rendering:auto;text-rendering:auto;enable-background:accumulate"
         ry="15.953379" />
      <path
         inkscape:connector-curvature="0"
         id="path4386"
         d="m 1217.412,168.95879 0,65.28177 17.6326,0 c 0,-0.019 -0.1338,-2.61037 1.2449,-3.62597 0,0 3.107,-2.49155 8.7785,-10.29578 1.4537,-6.48828 2.6342,-15.8256 3.2957,-21.56635 -0.8952,0.488 -1.8215,1.01152 -2.7614,1.5343 -0.1673,3.36145 -0.3625,7.94753 -0.3625,7.94753 -0.168,4.4415 -6.8311,4.18977 -6.6629,-0.25168 0,0 0.2461,-6.53143 0.4562,-9.97366 l 0.1135,-1.84683 1.6252,-0.88173 c 2.6483,-1.43492 5.4076,-3.17729 8.4086,-4.30381 1.5006,-0.56316 3.2011,-0.95635 4.9235,-0.93981 1.7225,0.0164 3.4676,0.4421 5.0549,1.51442 3.0672,2.07191 4.7995,4.43986 5.561,6.6096 0.3971,1.13155 0.2883,1.44447 0.3551,2.22989 1.0642,-0.20054 2.5148,-0.49383 6.0001,-1.59031 4.235,-1.32437 6.2305,5.02131 2,6.35998 -4.4,1.38431 -6.7942,2.10953 -8.9549,2.25041 -1.0806,0.0703 -2.4314,0.0117 -3.6767,-0.9802 -0.3001,-0.23891 -0.5432,-0.50349 -0.7456,-0.77637 l -1.0862,7.06316 2.9809,2.86466 c 0.6686,0.64259 1.0399,1.53465 1.0233,2.46175 l -0.2141,15.14754 c 5e-4,0.36458 -0.1649,1.04381 -0.1649,1.04381 l -1.4063,0.006 25.3388,0 0,-65.28176 -68.7573,0 z m 41.5019,6.70267 c 3.9764,0 7.1996,3.07946 7.1994,6.87644 10e-5,3.79694 -3.223,6.8764 -7.1994,6.8764 -3.9773,3.3e-4 -7.2015,-3.07849 -7.2012,-6.8764 -3e-4,-3.79794 3.2239,-6.87676 7.2012,-6.87644 z m -6.2334,40.59563 c -0.3832,2.19417 -0.7868,4.33334 -1.2271,6.22388 l -0.1492,0.64505 -0.3851,0.53898 c -3.87,5.4066 -8.7602,10.57079 -8.7602,10.57079 l -3.1122,0.006 16.857,0 c -0.011,-0.0323 -0.1813,-0.75836 -0.1671,-1.16283 l 0.1889,-13.69603 -3.182,-3.05895 c -0.022,-0.0212 -0.043,-0.0434 -0.062,-0.0657 z"
         style="color:#000000;clip-rule:nonzero;display:inline;overflow:visible;visibility:visible;opacity:1;isolation:auto;mix-blend-mode:normal;color-interpolation:sRGB;color-interpolation-filters:linearRGB;solid-color:#000000;solid-opacity:1;fill:#ffffff;fill-opacity:1;fill-rule:nonzero;stroke:none;stroke-width:1;stroke-linecap:round;stroke-linejoin:miter;stroke-miterlimit:4;stroke-dasharray:none;stroke-dashoffset:0;stroke-opacity:1;marker:none;color-rendering:auto;image-rendering:auto;shape-rendering:auto;text-rendering:auto;enable-background:accumulate" />
      <path
         inkscape:connector-curvature="0"
         id="path4388"
         d="m 1307.7608,158.71978 -15.9218,75.35734 51.0502,0.11834 -4.3299,-10.10705 -9.962,-7.69516 c -0.7112,-0.55139 -1.1694,-1.36709 -1.2701,-2.26138 -4.0762,5.8909 -10.1556,7.29778 -14.5867,6.79774 -4.5116,-0.50915 -7.8737,-2.58349 -7.8737,-2.58349 -3.8202,-2.29408 -0.363,-8.02074 3.4468,-5.70949 0,0 2.3072,1.34605 5.1752,1.66966 2.868,0.32371 5.733,0.0238 8.5016,-4.16497 4.6492,-7.03443 8.288,-12.83131 10.0825,-15.70429 -3.0643,-1.4294 -5.473,-0.84294 -7.6562,0.12519 -2.9744,1.3189 -4.9497,3.67177 -4.9497,3.67177 -2.7926,3.51333 -8.0383,-0.74077 -5.1779,-4.19915 0,0 2.7785,-3.50758 7.425,-5.56793 4.6465,-2.0603 11.7505,-2.3334 18.3247,3.35101 3.9293,3.39745 7.686,3.45489 10.9465,2.53358 1.6302,-0.46066 3.0809,-1.22522 4.0731,-1.95081 0.9924,-0.7256 1.4327,-1.73489 1.2046,-1.01025 0.4543,-1.5176 1.9134,-2.50569 3.4912,-2.36398 2.1393,0.19185 3.5416,2.32747 2.8674,4.36678 -0.6875,2.18468 -1.9824,3.18349 -3.6293,4.38792 -1.6473,1.20438 -3.7408,2.29185 -6.1965,2.98576 -2.7512,0.77743 -6.0245,0.98279 -9.3608,0.15936 l -8.2739,12.11325 8.1502,6.29431 c 0.4424,0.34226 0.792,0.79031 1.0157,1.30301 l 5.9495,13.5531 -5.8517,0.009 18.4233,0.0429 12.0373,-59.77952 -67.1246,-15.7426 z m 37.482,19.22086 c 0.2431,-0.006 0.4887,-6e-5 0.7367,0.0181 3.9661,0.28559 6.9603,3.58637 6.6883,7.37367 -0.2715,3.78724 -3.7063,6.62708 -7.6725,6.34355 -3.9672,-0.28439 -6.9624,-3.58554 -6.6904,-7.37368 0.2546,-3.5514 3.2906,-6.27026 6.9379,-6.36136 z"
         style="color:#000000;clip-rule:nonzero;display:inline;overflow:visible;visibility:visible;opacity:1;isolation:auto;mix-blend-mode:normal;color-interpolation:sRGB;color-interpolation-filters:linearRGB;solid-color:#000000;solid-opacity:1;fill:#ffffff;fill-opacity:1;fill-rule:nonzero;stroke:none;stroke-width:1;stroke-linecap:round;stroke-linejoin:miter;stroke-miterlimit:4;stroke-dasharray:none;stroke-dashoffset:0;stroke-opacity:1;marker:none;color-rendering:auto;image-rendering:auto;shape-rendering:auto;text-rendering:auto;enable-background:accumulate" />
      <path
         inkscape:connector-curvature="0"
         id="path4390"
         d="m 1382.8336,144.69404 0,89.41112 68.7572,0 0,-89.41112 -68.7572,0 z m 35.7227,8.82518 a 3.3334525,3.3334525 0 0 1 0.987,0.13335 3.3334525,3.3334525 0 0 1 2.3845,2.91187 c 0,0 0.2341,2.28899 0.3462,3.39819 a 11.558308,11.03688 16.739986 0 0 -1.8995,-0.76333 11.558308,11.03688 16.739986 0 0 -4.9209,-0.40904 c -0.026,-0.25991 -0.1579,-1.55751 -0.1579,-1.55751 a 3.3334525,3.3334525 0 0 1 3.2606,-3.71353 z m -0.855,5.97278 a 7.200893,6.8760411 16.739986 0 1 2.1259,0.31878 7.200893,6.8760411 16.739986 0 1 4.9161,8.65963 7.200893,6.8760411 16.739986 0 1 -8.8766,4.50834 7.200893,6.8760411 16.739986 0 1 -4.916,-8.65686 7.200893,6.8760411 16.739986 0 1 6.7506,-4.82989 z m -16.8104,4.34966 a 3.3334525,3.3334525 0 0 1 0.9789,0.18265 3.3334525,3.3334525 0 0 1 0.6053,0.27976 c 0,0 7.7548,4.3778 13.2932,12.11601 a 3.3334525,3.3334525 0 0 1 4.0158,-2.25794 3.3334525,3.3334525 0 0 1 1.1916,0.57731 c 0,0 0.7631,0.59623 1.4795,1.46037 0.7164,0.86413 1.5785,2.1382 2.3503,3.89064 1.4211,3.22646 2.3574,8.28524 1.9179,15.13593 1.4445,1.74114 2.738,3.08199 4.0364,4.75048 1.5172,1.94938 2.9314,4.39413 4.3771,8.29712 a 3.3334525,3.3334525 0 0 1 -1.1848,3.86944 c -5.7467,4.11149 -12.932,5.64864 -12.932,5.64864 a 3.3334525,3.3334525 0 1 1 -1.5014,-6.49268 c 0,0 4.3262,-1.33932 8.1939,-3.4037 -0.7471,-1.59466 -1.457,-2.85087 -2.2136,-3.82297 -1.1393,-1.4639 -2.6579,-2.92809 -4.7004,-5.53162 a 3.3334525,3.3334525 0 0 1 -0.5036,-0.90902 c -1.0317,3.91915 -3.1053,7.99323 -6.4857,12.07355 a 3.3334525,3.3334525 0 0 1 -4.7197,0.41726 c -3.0426,-2.57636 -4.4969,-6.27859 -5.5605,-9.37718 -1.0635,-3.09869 -1.5629,-5.72998 -1.5629,-5.72998 a 3.3337475,3.3337475 0 0 1 6.5502,-1.24493 c 0,0 0.4213,2.19884 1.3181,4.81138 0.3792,1.10479 0.9062,2.2186 1.4364,3.2552 2.3717,-3.83389 3.2013,-7.25581 3.1553,-10.35191 -0.06,-4.03935 -1.6425,-7.71706 -3.8879,-10.92916 -4.491,-6.42411 -11.3834,-10.47025 -11.3834,-10.47025 a 3.3334525,3.3334525 0 0 1 1.736,-6.2444 z"
         style="color:#000000;clip-rule:nonzero;display:inline;overflow:visible;visibility:visible;opacity:1;isolation:auto;mix-blend-mode:normal;color-interpolation:sRGB;color-interpolation-filters:linearRGB;solid-color:#000000;solid-opacity:1;fill:#ffffff;fill-opacity:1;fill-rule:nonzero;stroke:none;stroke-width:1;stroke-linecap:round;stroke-linejoin:miter;stroke-miterlimit:4;stroke-dasharray:none;stroke-dashoffset:0;stroke-opacity:1;marker:none;color-rendering:auto;image-rendering:auto;shape-rendering:auto;text-rendering:auto;enable-background:accumulate" />
      <text
         sodipodi:linespacing="125%"
         id="text4392"
         y="251.07535"
         x="1221.5404"
         style="color:#000000;font-style:normal;font-variant:normal;font-weight:bold;font-stretch:normal;font-size:18.01366234px;line-height:125%;font-family:Nunito;-inkscape-font-specification:'Nunito, Bold';text-indent:0;text-align:start;text-decoration:none;text-decoration-line:none;text-decoration-style:solid;text-decoration-color:#000000;letter-spacing:normal;word-spacing:normal;text-transform:none;direction:ltr;block-progression:tb;writing-mode:lr-tb;baseline-shift:baseline;text-anchor:start;white-space:normal;clip-rule:nonzero;display:inline;overflow:visible;visibility:visible;opacity:1;isolation:auto;mix-blend-mode:normal;color-interpolation:sRGB;color-interpolation-filters:linearRGB;solid-color:#000000;solid-opacity:1;fill:#ffffff;fill-opacity:1;fill-rule:nonzero;stroke:#ffffff;stroke-width:0.32005793;stroke-linecap:round;stroke-linejoin:miter;stroke-miterlimit:4;stroke-dasharray:none;stroke-dashoffset:0;stroke-opacity:1;marker:none;color-rendering:auto;image-rendering:auto;shape-rendering:auto;text-rendering:auto;enable-background:accumulate"
         xml:space="preserve"><tspan
           y="251.07535"
           x="1221.5404"
           id="tspan4394"
           sodipodi:role="line"
           style="fill:#ffffff;fill-opacity:1;stroke:#ffffff;stroke-width:0.32005793;stroke-opacity:1">Camina</tspan></text>
      <text
         sodipodi:linespacing="125%"
         id="text4396"
         y="251.07535"
         x="1311.2816"
         style="color:#000000;font-style:normal;font-variant:normal;font-weight:bold;font-stretch:normal;font-size:18.01366234px;line-height:125%;font-family:Nunito;-inkscape-font-specification:'Nunito, Bold';text-indent:0;text-align:start;text-decoration:none;text-decoration-line:none;text-decoration-style:solid;text-decoration-color:#000000;letter-spacing:normal;word-spacing:normal;text-transform:none;direction:ltr;block-progression:tb;writing-mode:lr-tb;baseline-shift:baseline;text-anchor:start;white-space:normal;clip-rule:nonzero;display:inline;overflow:visible;visibility:visible;opacity:1;isolation:auto;mix-blend-mode:normal;color-interpolation:sRGB;color-interpolation-filters:linearRGB;solid-color:#000000;solid-opacity:1;fill:#ffffff;fill-opacity:1;fill-rule:nonzero;stroke:#ffffff;stroke-width:0.32005793;stroke-linecap:round;stroke-linejoin:miter;stroke-miterlimit:4;stroke-dasharray:none;stroke-dashoffset:0;stroke-opacity:1;marker:none;color-rendering:auto;image-rendering:auto;shape-rendering:auto;text-rendering:auto;enable-background:accumulate"
         xml:space="preserve"><tspan
           y="251.07535"
           x="1311.2816"
           id="tspan4398"
           sodipodi:role="line"
           style="fill:#ffffff;fill-opacity:1;stroke:#ffffff;stroke-width:0.32005793;stroke-opacity:1">Corre</tspan></text>
      <text
         sodipodi:linespacing="125%"
         id="text4400"
         y="251.06213"
         x="1397.4625"
         style="color:#000000;font-style:normal;font-variant:normal;font-weight:bold;font-stretch:normal;font-size:18.01366234px;line-height:125%;font-family:Nunito;-inkscape-font-specification:'Nunito, Bold';text-indent:0;text-align:start;text-decoration:none;text-decoration-line:none;text-decoration-style:solid;text-decoration-color:#000000;letter-spacing:normal;word-spacing:normal;text-transform:none;direction:ltr;block-progression:tb;writing-mode:lr-tb;baseline-shift:baseline;text-anchor:start;white-space:normal;clip-rule:nonzero;display:inline;overflow:visible;visibility:visible;opacity:1;isolation:auto;mix-blend-mode:normal;color-interpolation:sRGB;color-interpolation-filters:linearRGB;solid-color:#000000;solid-opacity:1;fill:#ffffff;fill-opacity:1;fill-rule:nonzero;stroke:#ffffff;stroke-width:0.32005793;stroke-linecap:round;stroke-linejoin:miter;stroke-miterlimit:4;stroke-dasharray:none;stroke-dashoffset:0;stroke-opacity:1;marker:none;color-rendering:auto;image-rendering:auto;shape-rendering:auto;text-rendering:auto;enable-background:accumulate"
         xml:space="preserve"><tspan
           y="251.06213"
           x="1397.4625"
           id="tspan4402"
           sodipodi:role="line"
           style="color:#000000;font-style:normal;font-variant:normal;font-weight:bold;font-stretch:normal;font-size:18.01366234px;line-height:125%;font-family:Nunito;-inkscape-font-specification:'Nunito, Bold';text-indent:0;text-align:start;text-decoration:none;text-decoration-line:none;text-decoration-style:solid;text-decoration-color:#000000;letter-spacing:normal;word-spacing:normal;text-transform:none;direction:ltr;block-progression:tb;writing-mode:lr-tb;baseline-shift:baseline;text-anchor:start;white-space:normal;clip-rule:nonzero;display:inline;overflow:visible;visibility:visible;isolation:auto;mix-blend-mode:normal;color-interpolation:sRGB;color-interpolation-filters:linearRGB;solid-color:#000000;solid-opacity:1;fill:#ffffff;fill-opacity:1;fill-rule:nonzero;stroke:#ffffff;stroke-width:0.32005793;stroke-linecap:round;stroke-linejoin:miter;stroke-miterlimit:4;stroke-dasharray:none;stroke-dashoffset:0;stroke-opacity:1;marker:none;color-rendering:auto;image-rendering:auto;shape-rendering:auto;text-rendering:auto;enable-background:accumulate">Salta</tspan></text>
      <g
         transform="matrix(0.51107531,0,0,0.4032614,1135.8251,-66.85406)"
         style="fill:#ffffff;fill-opacity:1;stroke:none;stroke-opacity:1"
         id="g4408">
        <text
           xml:space="preserve"
           style="color:#000000;font-style:normal;font-variant:normal;font-weight:bold;font-stretch:normal;font-size:58.76999664px;line-height:125%;font-family:'Action Man';-inkscape-font-specification:'Action Man, Bold';text-indent:0;text-align:start;text-decoration:none;text-decoration-line:none;text-decoration-style:solid;text-decoration-color:#000000;letter-spacing:normal;word-spacing:normal;text-transform:none;direction:ltr;block-progression:tb;writing-mode:lr-tb;baseline-shift:baseline;text-anchor:start;white-space:normal;clip-rule:nonzero;display:inline;overflow:visible;visibility:visible;opacity:1;isolation:auto;mix-blend-mode:normal;color-interpolation:sRGB;color-interpolation-filters:linearRGB;solid-color:#000000;solid-opacity:1;fill:#ffffff;fill-opacity:1;fill-rule:nonzero;stroke:none;stroke-width:1;stroke-linecap:round;stroke-linejoin:miter;stroke-miterlimit:4;stroke-dasharray:none;stroke-dashoffset:0;stroke-opacity:1;marker:none;color-rendering:auto;image-rendering:auto;shape-rendering:auto;text-rendering:auto;enable-background:accumulate"
           x="160.77267"
           y="831.84467"
           id="text4410"
           sodipodi:linespacing="125%"
           transform="scale(0.9754964,1.0251191)"><tspan
             sodipodi:role="line"
             id="tspan4412"
             x="160.77267"
             y="831.84467">Por la inclusión</tspan></text>
        <path
           inkscape:connector-curvature="0"
           id="path4414"
           d="m 569.5708,799.05411 a 2.9226984,2.9226984 0 0 0 -2.21228,1.07859 l -5.07406,6.05422 a 2.9227597,2.9227597 0 0 0 4.47967,3.75535 l 5.07406,-6.05817 a 2.9226984,2.9226984 0 0 0 -2.26739,-4.82999 z"
           style="color:#000000;font-style:normal;font-variant:normal;font-weight:normal;font-stretch:normal;font-size:medium;line-height:normal;font-family:sans-serif;text-indent:0;text-align:start;text-decoration:none;text-decoration-line:none;text-decoration-style:solid;text-decoration-color:#000000;letter-spacing:normal;word-spacing:normal;text-transform:none;direction:ltr;block-progression:tb;writing-mode:lr-tb;baseline-shift:baseline;text-anchor:start;white-space:normal;clip-rule:nonzero;display:inline;overflow:visible;visibility:visible;opacity:1;isolation:auto;mix-blend-mode:normal;color-interpolation:sRGB;color-interpolation-filters:linearRGB;solid-color:#000000;solid-opacity:1;fill:#ffffff;fill-opacity:1;fill-rule:evenodd;stroke:none;stroke-width:2.9000001;stroke-linecap:round;stroke-linejoin:miter;stroke-miterlimit:4;stroke-dasharray:none;stroke-dashoffset:0;stroke-opacity:1;color-rendering:auto;image-rendering:auto;shape-rendering:auto;text-rendering:auto;enable-background:accumulate" />
      </g>
      <text
         xml:space="preserve"
         style="color:#000000;font-style:normal;font-variant:normal;font-weight:bold;font-stretch:normal;font-size:43.82590103px;line-height:125%;font-family:Nunito;-inkscape-font-specification:'Nunito Bold';text-indent:0;text-align:start;text-decoration:none;text-decoration-line:none;text-decoration-style:solid;text-decoration-color:#000000;letter-spacing:normal;word-spacing:normal;text-transform:none;direction:ltr;block-progression:tb;writing-mode:lr-tb;baseline-shift:baseline;text-anchor:start;white-space:normal;clip-rule:nonzero;display:inline;overflow:visible;visibility:visible;opacity:1;isolation:auto;mix-blend-mode:normal;color-interpolation:sRGB;color-interpolation-filters:linearRGB;solid-color:#000000;solid-opacity:1;fill:#786daa;fill-opacity:1;fill-rule:nonzero;stroke:none;stroke-width:3.148;stroke-linecap:butt;stroke-linejoin:miter;stroke-miterlimit:4;stroke-dasharray:none;stroke-dashoffset:0;stroke-opacity:1;marker:none;color-rendering:auto;image-rendering:auto;shape-rendering:auto;text-rendering:auto;enable-background:accumulate"
         x="-313.93515"
         y="1114.5586"
         id="text4440"
         sodipodi:linespacing="125%"
         transform="matrix(0.00302204,-0.9475932,1.0552965,0.00271361,0,0)"><tspan
           sodipodi:role="line"
           id="tspan4442"
           x="-313.93515"
           y="1114.5586">Voluntari@</tspan></text>
      <g
         style="fill:#ffffff;fill-opacity:1"
         id="g4285"
         transform="matrix(0.45634319,0,0,0.47797307,1112.3914,90.557419)">
        <text
           sodipodi:linespacing="125%"
           id="text6002"
           y="75.577354"
           x="950.71051"
           style="color:#000000;font-style:normal;font-variant:normal;font-weight:bold;font-stretch:normal;font-size:50.62583923px;line-height:125%;font-family:'Action Man';-inkscape-font-specification:'Action Man, Bold';text-indent:0;text-align:end;text-decoration:none;text-decoration-line:none;text-decoration-style:solid;text-decoration-color:#000000;letter-spacing:normal;word-spacing:normal;text-transform:none;direction:ltr;block-progression:tb;writing-mode:lr-tb;baseline-shift:baseline;text-anchor:end;white-space:normal;clip-rule:nonzero;display:inline;overflow:visible;visibility:visible;opacity:1;isolation:auto;mix-blend-mode:normal;color-interpolation:sRGB;color-interpolation-filters:linearRGB;solid-color:#000000;solid-opacity:1;fill:#ffffff;fill-opacity:1;fill-rule:nonzero;stroke:#ffffff;stroke-width:1.27451789;stroke-linecap:round;stroke-linejoin:miter;stroke-miterlimit:4;stroke-dasharray:none;stroke-dashoffset:0;stroke-opacity:1;marker:none;color-rendering:auto;image-rendering:auto;shape-rendering:auto;text-rendering:auto;enable-background:accumulate"
           xml:space="preserve"
           transform="scale(0.78197692,1.2788101)"><tspan
             style="fill:#ffffff;stroke-width:1.27451789"
             y="75.577354"
             x="950.71057"
             sodipodi:role="line"
             id="tspan5928">orrecaminata  ovaterra</tspan></text>
        <text
           transform="scale(1.0811905,0.92490639)"
           xml:space="preserve"
           style="color:#000000;font-style:normal;font-variant:normal;font-weight:bold;font-stretch:normal;font-size:63.84871292px;line-height:125%;font-family:Nunito;-inkscape-font-specification:'Nunito, Bold';text-indent:0;text-align:start;text-decoration:none;text-decoration-line:none;text-decoration-style:solid;text-decoration-color:#000000;letter-spacing:normal;word-spacing:normal;text-transform:none;direction:ltr;block-progression:tb;writing-mode:lr-tb;baseline-shift:baseline;text-anchor:start;white-space:normal;clip-rule:nonzero;display:inline;overflow:visible;visibility:visible;opacity:1;isolation:auto;mix-blend-mode:normal;color-interpolation:sRGB;color-interpolation-filters:linearRGB;solid-color:#000000;solid-opacity:1;fill:#ffffff;fill-opacity:1;fill-rule:nonzero;stroke:#ffffff;stroke-width:1.60740638;stroke-linecap:round;stroke-linejoin:miter;stroke-miterlimit:4;stroke-dasharray:none;stroke-dashoffset:0;stroke-opacity:1;marker:none;color-rendering:auto;image-rendering:auto;shape-rendering:auto;text-rendering:auto;enable-background:accumulate"
           x="196.33311"
           y="103.41883"
           id="text5885-4"
           sodipodi:linespacing="125%"><tspan
             style="font-style:normal;font-variant:normal;font-weight:bold;font-stretch:normal;font-size:63.84871292px;line-height:125%;font-family:Nunito;-inkscape-font-specification:'Nunito, Bold';text-align:start;writing-mode:lr-tb;text-anchor:start;fill:#ffffff;fill-opacity:1;stroke-width:1.60740638"
             y="103.41883"
             x="196.33311"
             id="tspan5889-7"
             sodipodi:role="line">#</tspan></text>
        <text
           xml:space="preserve"
           style="color:#000000;font-style:normal;font-variant:normal;font-weight:bold;font-stretch:normal;font-size:67.06885529px;line-height:125%;font-family:'Action Man';-inkscape-font-specification:'Action Man, Bold';text-indent:0;text-align:start;text-decoration:none;text-decoration-line:none;text-decoration-style:solid;text-decoration-color:#000000;letter-spacing:normal;word-spacing:normal;text-transform:none;direction:ltr;block-progression:tb;writing-mode:lr-tb;baseline-shift:baseline;text-anchor:start;white-space:normal;clip-rule:nonzero;display:inline;overflow:visible;visibility:visible;opacity:1;isolation:auto;mix-blend-mode:normal;color-interpolation:sRGB;color-interpolation-filters:linearRGB;solid-color:#000000;solid-opacity:1;fill:#ffffff;fill-opacity:1;fill-rule:nonzero;stroke:#ffffff;stroke-width:1.68847072;stroke-linecap:round;stroke-linejoin:miter;stroke-miterlimit:4;stroke-dasharray:none;stroke-dashoffset:0;stroke-opacity:1;marker:none;color-rendering:auto;image-rendering:auto;shape-rendering:auto;text-rendering:auto;enable-background:accumulate"
           x="339.5401"
           y="72.237251"
           id="text5898"
           sodipodi:linespacing="125%"
           transform="scale(0.7422566,1.347243)"><tspan
             sodipodi:role="line"
             id="tspan5900"
             x="339.5401"
             y="72.237251"
             style="fill:#ffffff;fill-opacity:1;stroke-width:1.68847072">C</tspan></text>
        <text
           xml:space="preserve"
           style="color:#000000;font-style:normal;font-variant:normal;font-weight:bold;font-stretch:normal;font-size:68.15290833px;line-height:125%;font-family:'Action Man';-inkscape-font-specification:'Action Man, Bold';text-indent:0;text-align:start;text-decoration:none;text-decoration-line:none;text-decoration-style:solid;text-decoration-color:#000000;letter-spacing:normal;word-spacing:normal;text-transform:none;direction:ltr;block-progression:tb;writing-mode:lr-tb;baseline-shift:baseline;text-anchor:start;white-space:normal;clip-rule:nonzero;display:inline;overflow:visible;visibility:visible;opacity:1;isolation:auto;mix-blend-mode:normal;color-interpolation:sRGB;color-interpolation-filters:linearRGB;solid-color:#000000;solid-opacity:1;fill:#ffffff;fill-opacity:1;fill-rule:nonzero;stroke:#ffffff;stroke-width:1.71576178;stroke-linecap:round;stroke-linejoin:miter;stroke-miterlimit:4;stroke-dasharray:none;stroke-dashoffset:0;stroke-opacity:1;marker:none;color-rendering:auto;image-rendering:auto;shape-rendering:auto;text-rendering:auto;enable-background:accumulate"
           x="741.37372"
           y="70.837502"
           id="text5902"
           sodipodi:linespacing="125%"
           transform="scale(0.72956456,1.3706806)"><tspan
             sodipodi:role="line"
             id="tspan5904"
             x="741.37372"
             y="70.837502"
             style="fill:#ffffff;fill-opacity:1;stroke-width:1.71576178">N</tspan></text>
      </g>
    </g>
  </g>
  <g
     inkscape:groupmode="layer"
     inkscape:label="Printing Marks"
     id="printing-marks"
     transform="translate(25.251162,-22.135504)">
    <g
       inkscape:label="CropMarks"
       id="CropMarks">
      <path
         style="fill:none;stroke:#000000;stroke-width:0.25"
         id="cropTL1"
         d="m 17.268523,57.568575 0,-35.433071"
         inkscape:connector-curvature="0" />
      <path
         style="fill:none;stroke:#000000;stroke-width:0.25"
         id="cropTL2"
         d="m 10.181909,64.655189 -35.433071,0"
         inkscape:connector-curvature="0" />
      <path
         style="fill:none;stroke:#000000;stroke-width:0.25"
         id="cropTR1"
         d="m 372.04724,57.568575 0,-35.433071"
         inkscape:connector-curvature="0" />
      <path
         style="fill:none;stroke:#000000;stroke-width:0.25"
         id="cropTR2"
         d="m 379.13386,64.655189 35.43307,0"
         inkscape:connector-curvature="0" />
      <path
         style="fill:none;stroke:#000000;stroke-width:0.25"
         id="cropBL1"
         d="m 17.268523,302.50476 0,35.43307"
         inkscape:connector-curvature="0" />
      <path
         style="fill:none;stroke:#000000;stroke-width:0.25"
         id="cropBL2"
         d="m 10.181909,295.41815 -35.433071,0"
         inkscape:connector-curvature="0" />
      <path
         style="fill:none;stroke:#000000;stroke-width:0.25"
         id="cropBR1"
         d="m 372.04724,302.50476 0,35.43307"
         inkscape:connector-curvature="0" />
      <path
         style="fill:none;stroke:#000000;stroke-width:0.25"
         id="cropBR2"
         d="m 379.13386,295.41815 35.43307,0"
         inkscape:connector-curvature="0" />
    </g>
  </g>
</svg>
